#butterfly2.svg
<?xml version="1.0" encoding="UTF-8" standalone="no"?>
<!-- Created with Inkscape (http://www.inkscape.org/) -->

<svg
   xmlns:svg="http://www.w3.org/2000/svg"
   xmlns="http://www.w3.org/2000/svg"
   x-ratio='1' y-ratio='1'
>
<path
     inkscape:connector-curvature="0"
     style="fill:black;fill-opacity:1;fill-rule:evenodd;stroke:none"
     id="path3321"
     d="M 0.1193,0.09183 C 0.1193,0.09183 8.3373,8.6798 6.7598,14.562 C 5.5374,19.12 7.0113,21.414 7.0113,21.414 C 7.0113,21.414 8.6408,19.444 13.173,20.15 C 16.848,20.679 18.157,22.15 18.157,22.15 C 18.157,22.15 12.99,18.415 4.4963,24.18 C 13.138,28.943 7.5139,35.795 15.245,39.206 C 15.348,39.176 18.512,31.267 25.118,30.736 C 31.735,31.267 34.887,39.176 34.994,39.206 C 42.724,35.795 37.098,28.943 45.741,24.18 C 37.255,18.415 32.081,22.15 32.081,22.15 C 32.081,22.15 33.389,20.679 37.063,20.15 C 41.607,19.444 43.228,21.414 43.228,21.414 C 43.228,21.414 44.7,19.12 43.478,14.562 C 41.902,8.6798 50.12,0.09183 50.12,0.09183 C 50.12,0.09183 33.898,3.5328 25.898,16.885 C 25.933,15.856 26.02,13.885 26.316,11.474 C 26.711,8.1798 27.535,6.3268 27.535,6.3268 C 27.535,6.3268 28.257,6.7978 28.89,6.0918 C 29.748,5.1208 28.49,3.9738 27.535,4.7978 C 26.453,5.7388 25.205,12.238 25.153,18.209 C 25.144,18.238 25.127,18.268 25.118,18.297 C 25.109,18.268 25.1,18.238 25.092,18.209 C 25.04,12.238 23.783,5.7388 22.698,4.7978 C 21.746,3.9738 20.498,5.1208 21.347,6.0918 C 21.979,6.7978 22.698,6.3268 22.698,6.3268 C 22.698,6.3268 23.531,8.1798 23.931,11.474 C 24.216,13.885 24.303,15.856 24.337,16.885 C 16.345,3.5328 0.1193,0.09183 0.1193,0.09183 z M 6.153,4.7388 C 6.153,4.7388 11.032,5.8858 16.111,9.6798 C 22.483,14.415 25.092,20.944 25.092,20.944 L 25.118,19.65 L 25.153,20.944 C 25.153,20.944 27.753,14.415 34.124,9.6798 C 39.205,5.8858 44.087,4.7388 44.087,4.7388 C 44.087,4.7388 40.539,10.68 42.048,14.915 C 43.263,18.297 41.902,19.179 41.902,19.179 C 41.902,19.179 33.711,17.003 29.446,24.121 C 35.633,20.738 39.491,22.208 42.983,24.063 C 42.983,24.063 39.196,26.502 38.683,30.178 C 38.078,34.558 35.972,35.617 35.972,35.617 C 35.972,35.617 33.074,32.089 30.622,30.971 C 28.307,29.943 25.464,29.443 25.153,29.384 L 25.153,29.384 C 25.153,29.384 25.127,29.384 25.118,29.384 C 25.118,29.384 25.092,29.384 25.092,29.384 L 25.092,29.384 C 24.761,29.443 21.929,29.943 19.622,30.971 C 17.169,32.089 14.274,35.617 14.274,35.617 C 14.274,35.617 12.159,34.558 11.552,30.178 C 11.04,26.502 7.2539,24.063 7.2539,24.063 C 10.746,22.208 14.603,20.738 20.792,24.121 C 16.527,17.003 8.3463,19.179 8.3463,19.179 C 8.3463,19.179 6.9765,18.297 8.19,14.915 C 9.6967,10.68 6.153,4.7388 6.153,4.7388 z" />
  <path
     inkscape:connector-curvature="0"
     style="fill:black;fill-opacity:1;fill-rule:evenodd;stroke:black;stroke-width:0.08667px;stroke-linecap:butt;stroke-linejoin:miter;stroke-opacity:1"
     id="path3201"
     d="M 23.679,18.062 C 25.82,22.121 23.401,25.415 23.401,25.415 C 23.401,25.415 23.037,29.002 25.092,36.265 C 27.14,29.002 26.774,25.415 26.774,25.415 C 26.774,25.415 24.355,22.121 26.494,18.062 L 25.092,19.297 L 23.679,18.062 z" /></svg>
