#butterfly.svg
<?xml version="1.0" encoding="UTF-8" standalone="no"?>
<svg
   xmlns:svg="http://www.w3.org/2000/svg"
   xmlns="http://www.w3.org/2000/svg"
   x-ratio='0.15'
   y-ratio='0.15'>
  <path
     style="stroke:#3f3f3f;stroke-width:0;stroke-linecap:square;stroke-miterlimit:10"
     d="M 38.54,77.76 C 47.92,76.98 70.36,73.76 71.28,79.53 C 62.75,78.3 44.7,84.98 45.96,90.04 C 52.08,91.16 70.68,84.53 56.47,92.38 C 49.16,94.02 41.06,98.46 52.63,101.8 C 66.58,107.6 81.17,100 95.55,100.8 C 104.4,101.9 125.5,97.65 127.9,101.4 C 111.3,103.3 94.35,100.8 77.76,103.9 C 71.74,102.5 84.33,109.8 75.93,110.8 C 66.11,113.7 74.06,111.1 78.74,114.5 C 75.59,113.6 61.98,118.3 70,118 C 65.97,121.8 46.46,126.1 60.62,123.1 C 78.26,121.8 48.38,138.2 48.47,136.2 C 54.75,132.9 72.56,136.5 57.94,141.9 C 53.02,141 66.46,140.7 58.88,146.1 C 56.2,150.8 46.51,160.5 56.27,152.9 C 59.84,148.1 77.96,135.3 70.53,148.5 C 70.11,155.2 59.7,160.8 70.75,155.1 C 72.82,148.6 73.6,159.6 77,154.7 C 77.5,160.1 68.6,175.9 77.94,165.8 C 89.54,153.6 79.21,176.8 84.15,174.2 C 89.85,178.1 94.09,181.6 97.45,171.7 C 97.38,170.4 99.14,187.3 104.2,175.9 C 110.6,166.6 109.9,155.4 111.9,144.9 C 113.2,133.4 119.5,123.8 125.9,114.5 C 123,124.8 116.9,135 114.9,146.3 C 110.8,161.3 105.9,176.2 104.7,191.8 C 98.11,199.4 90.3,209.8 78.75,206.2 C 66.42,200.9 49.39,203.9 48.59,220.2 C 48.83,226.8 44.96,247.3 37.56,233.3 C 33.63,221 47.69,212.2 48.1,200 C 54.66,187.3 36.09,181.3 37.67,171.3 C 43.36,165.7 35.98,160.3 35.18,155.3 C 23.78,151.6 35.77,139.5 31.69,131.1 C 32.04,119.2 48.77,108.5 52.4,107.5 C 40.12,108.6 22.87,106.9 20.64,91.73 C 16.09,80.04 16.88,67.44 14.18,55.23 C 11.53,40.82 1.414,28.76 0.1433,14.12 C 1.28,-1.791 21.46,-2.117 33,1.79 C 67.62,11.26 98.09,36.57 113,69.28 C 115.9,75.92 120.2,91.03 121.6,91.85 C 114.7,81.44 108.4,70.65 102.3,59.78 C 94.7,52.63 87.16,45.04 81.14,36.49 C 75.09,29.84 60.45,19.45 68.26,34.06 C 65.42,34.98 55.67,33.76 63.01,34.06 C 56.25,31.73 39.77,41.48 54.75,38.99 C 67.55,41.78 53.62,39.29 49.03,42.8 C 54.25,44.58 61.16,46.13 52.5,48.66 C 47.88,51.08 61.48,48.66 52.15,51.68 C 42.7,55.19 62.51,54.27 52.67,57.13 C 41.82,59.14 71.75,58.26 55.72,61.1 C 48.92,63.48 44.62,66.74 54.79,66 C 60.95,66.88 71.51,69.44 59.68,69.3 C 52.19,70.83 45.33,74.38 38.54,77.76 z M 218.5,79.51 C 209.2,76.83 188,76.92 185.7,79.54 C 194.1,78.63 212.4,85.16 211.1,90.02 C 205.3,91.45 187,84.63 199.8,92.93 C 204.6,96.26 217,96.19 206.4,101.4 C 192.1,108.2 176.5,99.89 161.5,100.7 C 152.6,101.9 131.7,97.66 129.1,101.4 C 146,103.8 163.4,99.82 179.9,104.6 C 181.1,106 177.6,111.9 183.6,111.9 C 194.5,117 172.4,112.3 184,116.5 C 189.2,118.4 195.4,116.7 187.1,119.7 C 193.2,118.8 210,127.4 195.8,123.3 C 180.1,124.6 204.2,134.2 209.8,137.2 C 205,135.5 185.5,133.6 197.1,141 C 206.7,144.1 190.8,140 198.2,146.1 C 200.7,150.7 210.7,160.4 200.9,153.3 C 196.3,150.3 179.6,136 187.1,149.4 C 190.9,155 194.5,161.3 186,154.5 C 181.8,152 177.8,162.4 183.3,167.3 C 185.3,176 169.8,153.3 173.3,166.8 C 174.1,171.8 177,177.1 170.8,174 C 169.3,184.6 162,180 159.1,172.2 C 159.7,178.6 158.3,186 154.3,177.3 C 150.3,172.2 147.6,161.6 146.2,150.8 C 143.6,137.9 139.8,124.7 131.1,114.5 C 135.5,125.7 141,135.7 142.3,148 C 146.2,162.4 151.2,176.5 152.1,191.4 C 155.7,196.9 162.5,199.1 165.2,205 C 176.4,211.2 189.8,200.5 201.1,205.4 C 214.2,212.4 201.2,236.3 215.6,238.8 C 228.3,232.1 215.8,216.3 211.1,207.8 C 205.1,197.8 207.1,184.1 216.9,178.5 C 224.7,173.9 211.9,163.9 220.2,159.4 C 220.8,153.7 231.7,152.9 225.5,145 C 223.7,135.9 226.1,127.4 220.3,118.9 C 221.5,110.2 193.5,108.1 209.4,107.6 C 221.8,108.9 237.7,102.3 237.7,88.01 C 243.1,74.7 239.6,59.61 245.6,46.39 C 248.9,34.38 258.8,23.47 256.4,10.46 C 250.4,-4.221 231,-0.238 219.1,3.468 C 181.1,15.14 149.7,46.97 139,85.28 C 137.9,89.51 132,97.37 137.5,89.05 C 148.3,72.22 158.7,54.91 172.9,40.71 C 175.4,34.66 190,25.47 190.9,28.51 C 180.3,37.64 204.4,31.61 194.1,35.81 C 200.3,34.22 217,40.5 202.5,39.44 C 190.3,40.36 202.4,42.59 208.1,42.8 C 203.3,45.53 196,45.51 204.3,49.16 C 210,49.37 195.7,51.59 204.2,51.88 C 214,55.96 195.1,54.09 205,58.43 C 212,61.77 199.3,59.71 196.2,60.28 C 200.2,60.98 217.2,67.13 202.5,65.84 C 196.2,66.1 185.4,70.2 197.4,71.19 C 205.3,71.36 211.7,76.15 218.5,79.51 z M 127.6,154.7 C 137.8,148.4 131.2,132.8 134.8,122.8 C 133.6,116.1 138.5,103.2 146.9,109.2 C 132.2,105.4 150.9,89.32 150.2,90.7 C 142.9,96.38 133.8,95.89 134.9,84.43 C 137.7,71.17 118.8,71.65 121.9,85.08 C 124.3,100 105.4,89.64 106.3,90.45 C 113.3,92.36 122.2,106.2 110.2,107.5 C 126.3,106.5 121.9,127.7 122.8,138.2 C 123.7,143.5 122.8,151.2 127.6,154.7 z M 127.6,77.76 C 119.9,63 107.9,50.61 103,34.38 C 96.88,24.4 93.78,12.98 88.1,2.816 C 87.82,9.748 94.98,19.33 97.72,28.07 C 103,37.59 108.8,46.67 114.1,56.21 C 118.8,63.12 119.8,73.42 127.6,77.76 z M 129.4,77.76 C 143.7,62.25 150,41.47 160.3,23.42 C 163.9,18.82 165.6,2.723 169.9,4.099 C 166.1,13.6 161.5,22.98 156.8,32.88 C 148.8,47.03 140,60.83 133.1,75.6 C 131.9,76.65 131.5,82.47 129.4,77.76 z"
     id="path9"
     inkscape:connector-curvature="0" />
</svg>