#cmotor.svg

<?xml version="1.0" encoding="UTF-8" standalone="no"?>
<!-- Created with Inkscape (http://www.inkscape.org/) -->

<svg
   xmlns:dc="http://purl.org/dc/elements/1.1/"
   xmlns:cc="http://creativecommons.org/ns#"
   xmlns:rdf="http://www.w3.org/1999/02/22-rdf-syntax-ns#"
   xmlns:svg="http://www.w3.org/2000/svg"
   xmlns="http://www.w3.org/2000/svg"
   version="1.1"
   width="90"
   height="90"
   x-ratio="1" y-ratio='1'
   id="svg2">
<g
     inkscape:groupmode="layer"
     id="layer3"
     inkscape:label="Mill"
     style="display:inline">    <path
       id="path4159"
       style="fill:none;stroke:lime;stroke-width:0.1;stroke-miterlimit:4;stroke-opacity:1;stroke-dasharray:none;display:inline"
       d="m 0.703,3.763 l 0,0 l 0,-2.9996 m 0,2.9996 l 0,-2.9996 m 1.32,0 l 0,2.9996 m 1.27,0 l 0,-2.9996 m 1.3,0 l 0,2.9996 m 1.23,0 l 0,-2.9996 m 1.33,0 l 0,2.9996 m 1.25,0 l 0,-2.9996 m 1.25,0 l 0,2.9996 m 1.247,0 l 0,-2.9996 m 1.3,0 l 0,2.9996 m 1.28,0 l 0,-2.9996 m 1.27,0 l 0,2.9996 m -14.057,0 l 15.377,0 l 0,-2.9996"
       inkscape:connector-curvature="0" />
    <path
       id="path4159-1"
       style="fill:none;stroke:lime;stroke-width:0.1;stroke-miterlimit:4;stroke-opacity:1;stroke-dasharray:none;display:inline"
       d="m 16.06,9.763 l 0,2.987 m -1.32,0 l 0,-2.987 m -1.27,0 l 0,2.987 m -1.3,0 l 0,-2.987 m -1.23,0 l 0,2.987 m -1.317,0 l 0,-2.987 m -1.25,0 l 0,2.987 m -1.25,0 l 0,-2.987 m -1.25,0 l 0,2.987 m -1.3,0 l 0,-2.987 m -1.28,0 l 0,2.987 m -1.27,0 l 0,-2.987 m 14.047,0 l -15.367,0 l 0,2.987"
       inkscape:connector-curvature="0" />
    <path
       id="path4159-1-4"
       style="fill:none;stroke:lime;stroke-width:0.0589;stroke-miterlimit:4;stroke-opacity:1;stroke-dasharray:none;display:inline"
       d="m 27.37,9.637 l -2.05,0 l 0,-6.43 m 0,5.77 l 2.05,0 m 0,-0.63 l -2.05,0 m 0,-0.65 l 2.05,0 m 0,-0.66 l -2.05,0 m 0,-0.63 l 2.05,0 m 0,-0.63 l -2.05,0 m 0,-0.63 l 2.05,0 m 0,-0.66 l -2.05,0 m 0,-0.62 l 2.05,0 m 0,-0.66 l -2.05,0"
       inkscape:connector-curvature="0" />
    <path
       id="path4159-1-4-3"
       style="fill:none;stroke:lime;stroke-width:0.0589;stroke-miterlimit:4;stroke-opacity:1;stroke-dasharray:none;display:inline"
       d="m 19.4,9.617 l 2.05,0 l 0,-6.43 m 0,5.77 l -2.05,0 m 0,-0.63 l 2.05,0 m 0,-0.65 l -2.05,0 m 0,-0.66 l 2.05,0 m 0,-0.63 l -2.05,0 m 0,-0.63 l 2.05,0 m 0,-0.63 l -2.05,0 m 0,-0.66 l 2.05,0 m 0,-0.62 l -2.05,0 m 0,-0.66 l 2.05,0"
       inkscape:connector-curvature="0" />  </g>
</svg>