#tmp.svg
<svg>

<path d="M 2.8736,3.0254 C 3.094,3.2754 2.6454,3.4459 2.4581,3.3918 C 1.9507,3.2452 1.9093,2.5808 2.1409,2.1945 C 2.555,1.5035 3.5193,1.48 4.12,1.9263 C 5.0015,2.5813 5.0056,3.8801 4.339,4.6872 C 3.4507,5.763 1.807,5.7463 0.79632,4.8572 C -0.47557,3.7384 -0.43749,1.7457 0.67543,0.53267 C 2.0233,-0.93642 4.3673,-0.87658 5.7818,0.46087 C 7.4487,2.037 7.3669,4.7335 5.8045,6.349 C 4.0006,8.2142 0.9507,8.1104 -0.8655,6.3227 C -2.9292,4.2913 -2.8032,0.88753 -0.79001,-1.1292 C 1.4685,-3.3916 5.2266,-3.2434 7.4436,-1.0046 C 9.9049,1.481 9.7345,5.5937 7.2699,8.0109 C 4.5575,10.671 0.08996,10.479 -2.5273,7.7881 C -5.3867,4.8488 -5.1718,0.02633 -2.2555,-2.791 C 0.91053,-5.8495 6.0882,-5.6123 9.1054,-2.47 C 12.363,0.92265 12.104,6.4555 8.7354,9.6727 C 5.1161,13.13 -0.77209,12.848 -4.1891,9.2535 C -7.8453,5.4076 -7.5413,-0.8359 -3.7209,-4.4528 C 0.35157,-8.3083 6.9505,-7.982 10.767,-3.9355 C 14.822,0.36354 14.473,7.318 10.201,11.335 C 5.6753,15.589 -1.6347,15.218 -5.851,10.719 C -10.305,5.967 -9.9113,-1.6986 -5.1864,-6.1146 C -0.20785,-10.768 7.8133,-10.352 12.429,-5.4009 C 17.281,-0.19595 16.844,8.1809 11.666,12.996"/>
</svg>