#cmotor.svg

<?xml version="1.0" encoding="UTF-8" standalone="no"?>
<!-- Created with Inkscape (http://www.inkscape.org/) -->

<svg
   xmlns:dc="http://purl.org/dc/elements/1.1/"
   xmlns:cc="http://creativecommons.org/ns#"
   xmlns:rdf="http://www.w3.org/1999/02/22-rdf-syntax-ns#"
   xmlns:svg="http://www.w3.org/2000/svg"
   xmlns="http://www.w3.org/2000/svg"
   xmlns:sodipodi="http://sodipodi.sourceforge.net/DTD/sodipodi-0.dtd"
   xmlns:inkscape="http://www.inkscape.org/namespaces/inkscape"
   version="1.1"
   width="90"
   height="90"
   x-ratio="1" y-ratio='1'
   id="svg2"
   inkscape:version="0.48.2 r9819"
   sodipodi:docname="cmotor.svg">
  <metadata
     id="metadata12">
    <rdf:RDF>
      <cc:Work
         rdf:about="">
        <dc:format>image/svg+xml</dc:format>
        <dc:type
           rdf:resource="http://purl.org/dc/dcmitype/StillImage" />
      </cc:Work>
    </rdf:RDF>
  </metadata>
  <defs
     id="defs10" />
  <sodipodi:namedview
     pagecolor="#ffffff"
     bordercolor="#666666"
     borderopacity="1"
     objecttolerance="10"
     gridtolerance="10"
     guidetolerance="10"
     inkscape:pageopacity="0"
     inkscape:pageshadow="2"
     inkscape:window-width="1473"
     inkscape:window-height="878"
     id="namedview8"
     showgrid="false"
     inkscape:zoom="20.978"
     inkscape:cx="12.818"
     inkscape:cy="72.007"
     inkscape:window-x="-8"
     inkscape:window-y="-8"
     inkscape:window-maximized="1"
     inkscape:current-layer="svg2" />
  <g
     id="g2993">
    <path
       id="path4159-1-4"
       style="fill:none;stroke:lime;stroke-width:0.0589;stroke-miterlimit:4;stroke-opacity:1;stroke-dasharray:none;display:inline"
       d="m 17.426,11.457 l -2.05,0 l 0,-6.4298 m 0,5.7698 l 2.05,0 m 0,-0.63 l -2.05,0 m 0,-0.6498 l 2.05,0 m 0,-0.66 l -2.05,0 m 0,-0.63 l 2.05,0 m 0,-0.63 l -2.05,0 m 0,-0.63 l 2.05,0 m 0,-0.66 l -2.05,0 m 0,-0.62 l 2.05,0 m 0,-0.66 l -2.05,0"
       connector-curvature="0"
       inkscape:connector-curvature="0" />
    <path
       sodipodi:nodetypes="cccccccccccccccccccccccccccccccccccc"
       id="path4159-1-4-3"
       style="fill:none;stroke:lime;stroke-width:0.0589;stroke-miterlimit:4;stroke-opacity:1;stroke-dasharray:none;display:inline"
       d="m 9.035,12.65 l 0.013,-1.213 l 2.4576,0 l 0,-1.9509 m 0,-0.6573 l 0,-3.8216 m 0,5.7698 l -4.1261,0.02 l -0.014,1.904 m -1.6685,0.04 l 0.013,-2.63 l 5.7946,0.03 m 0,-0.6498 L 4.4726,9.4635 l 0.01,3.3545 m 4.94,-3.3235 l 0,-0.6573 l 2.0864,0 m 0,-0.63 l -4.9994,0 l 0.01,1.2472 M 4.434,8.4536 L 6.0318,7.5772 l 5.4742,0 m 0,-0.63 l -7.0952,0 L 4.3943,4.2675 M 6.0242,4.231 l 0.011,2.0562 l 5.4708,0 m 0,-0.62 l -3.7533,0 L 7.7403,4.2371 m 1.6318,0.012 l -0,0.7584 l 2.1373,0"
       connector-curvature="0"
       inkscape:connector-curvature="0" />
  </g>
</svg>
