#Pre.svg
<?xml version="1.0" encoding="UTF-8" standalone="no"?>
<!-- Created with Inkscape (http://www.inkscape.org/) -->

<svg
   xmlns:dc="http://purl.org/dc/elements/1.1/"
   xmlns:cc="http://creativecommons.org/ns#"
   xmlns:rdf="http://www.w3.org/1999/02/22-rdf-syntax-ns#"
   xmlns:svg="http://www.w3.org/2000/svg"
   xmlns="http://www.w3.org/2000/svg"
   xmlns:xlink="http://www.w3.org/1999/xlink"
   xmlns:sodipodi="http://sodipodi.sourceforge.net/DTD/sodipodi-0.dtd"
   xmlns:inkscape="http://www.inkscape.org/namespaces/inkscape"
   id="svg2"
   version="1.1"
   inkscape:version="0.48.2 r9819"
   width="23.7"
   height="26.4"
   sodipodi:docname="Pre.svg">
  <path
     id="path3853"
     style="fill:none;stroke:black;stroke-width:0.17717;stroke-miterlimit:4;stroke-opacity:1;stroke-dasharray:none"
     d="M 11.837,0.16278 C 11.856,1.6148 11.843,3.1136 11.847,4.5816 L 11.978,4.7102 L 13.205,4.7102 L 14.432,4.7102 L 14.561,4.5816 L 14.561,3.2102 L 14.561,1.9673 L 18.005,1.9673 L 21.431,1.9756 L 21.352,16.052 L 4.4813,16.036 C 4.4898,14.423 4.4815,12.811 4.4742,11.198"
     inkscape:connector-curvature="0"
     sodipodi:nodetypes="ccccccccccccc" />
  <path
     style="fill:none;stroke:black;stroke-width:0.17717;stroke-miterlimit:4;stroke-opacity:1;stroke-dasharray:none"
     d="M 20.603,13.422 L 17.714,13.444 L 15.064,13.444 L 15.064,13.963 L 15.064,14.612 L 14.936,14.743 L 10.46,14.743 L 5.9853,14.743 L 5.8587,14.612 L 5.8587,12.844 L 5.8587,11.206 L 4.4697,11.206 L 4.4464,7.8508 L 0.77484,7.8492"
     id="path3874" />
  <path
     style="fill:none;stroke:black;stroke-width:0.17717;stroke-miterlimit:4;stroke-opacity:1;stroke-dasharray:none"
     d="M 9.1396,13.664 L 9.1396,10.304 L 12.416,10.297 L 12.416,9.3796 L 12.416,8.3329 L 12.538,8.2045 L 12.547,8.2045 L 12.547,8.2045 L 13.738,8.2045 L 14.929,8.2045 L 15.057,8.3329 L 15.057,9.7044 L 15.055,11.219 L 12.294,11.206 L 9.7877,11.206 L 9.7877,12.303 L 9.7877,13.678"
     id="path3823"
     inkscape:connector-curvature="0"
     sodipodi:nodetypes="ccccccccccccccccc" />
  <path
     style="fill:none;stroke:black;stroke-width:0.17717;stroke-miterlimit:4;stroke-opacity:1;stroke-dasharray:none"
     d="M 11.834,1.8949 L 11.865,9.1076 C 11.253,9.1211 10.641,9.1132 10.029,9.1132 L 8.4974,9.1132 L 8.4974,11.256 L 8.4974,13.71"
     id="path3809"
     inkscape:connector-curvature="0"
     sodipodi:nodetypes="cccccc" />
  <path
     style="fill:none;stroke:black;stroke-width:0.17717;stroke-miterlimit:4;stroke-opacity:1;stroke-dasharray:none"
     d="M 8.5696,1.9318 L 8.5696,3.8237 L 8.5696,5.1026 L 9.596,5.1026 L 10.751,5.1026 L 10.88,5.2312 L 10.88,6.6387 L 10.88,8.0442 L 10.751,8.1749 L 9.2351,8.1749 L 7.8478,8.1749 L 7.8478,10.787 L 7.8478,13.668"
     id="path3815" />
  <path
     id="path3811"
     style="fill:none;stroke:black;stroke-width:0.17717;stroke-miterlimit:4;stroke-opacity:1;stroke-dasharray:none"
     d="M 17.374,1.9728 L 17.374,4.4012 L 17.374,6.5462 L 18.869,6.5462 L 20.493,6.5462 L 20.622,6.6748 C 20.62,9.5681 20.625,12.823 20.625,15.334 L 20.496,15.465 C 15.468,15.465 5.1608,15.465 5.1608,15.465 C 5.1608,15.465 5.1406,12.613 5.1406,11.192"
     inkscape:connector-curvature="0"
     sodipodi:nodetypes="cccccccccc" />
  <path
     style="fill:none;stroke:black;stroke-width:0.17717;stroke-miterlimit:4;stroke-opacity:1;stroke-dasharray:none"
     d="M 0.75587,5.1026 C 1.7859,5.1026 2.9722,5.1026 4.0023,5.1026 L 7.0697,5.1026 L 7.1982,5.2312 L 7.1982,9.3796 L 7.1982,13.671"
     id="path3869" />
  <path
     style="fill:none;stroke:black;stroke-width:0.17717;stroke-miterlimit:4;stroke-opacity:1;stroke-dasharray:none"
     d="M 4.4328,9.4194 L 6.3482,9.4315 L 6.4767,9.56 L 6.4767,11.689 L 6.4767,13.69 L 10.138,13.69 L 13.796,13.668 L 13.805,11.203 L 17.983,11.198 L 17.983,9.2733 L 17.983,7.6716 L 15.046,7.6716 L 11.823,7.6716"
     id="path3860" />
  <path
     style="fill:none;stroke:black;stroke-width:0.17717;stroke-miterlimit:4;stroke-opacity:1;stroke-dasharray:none"
     d="M 4.4557,16.034 L 4.4557,17.716 L 4.4557,19.232 L 4.3271,19.363 L 0.86609,19.363"
     id="path3829"
     inkscape:connector-curvature="0"
     sodipodi:nodetypes="ccccc" />
  <path
     style="fill:none;stroke:black;stroke-width:0.17537;stroke-miterlimit:4;stroke-opacity:1;stroke-dasharray:none"
     d="M 5.1546,16.028 L 5.1624,21.903 L 5.0364,22.033 C 3.6484,22.036 2.2604,22.03 0.87239,22.025"
     id="path3831"
     inkscape:connector-curvature="0"
     sodipodi:nodetypes="cccc" />
  <path
     style="fill:none;stroke:black;stroke-width:0.17717;stroke-miterlimit:4;stroke-opacity:1;stroke-dasharray:none"
     d="M 7.1995,16.044 L 7.1995,19.304 L 7.1995,22.279 L 8.3702,22.279 L 9.6695,22.279 L 9.798,22.408 L 9.798,24.104 L 9.798,25.8 L 9.6682,25.931 L 8.405,25.931 L 7.0169,25.931 L 7.0112,23.141 C 7.0112,23.141 6.6642,23.147 6.4923,23.127 L 6.4845,19.473 L 6.4845,16.044 z"
     id="path3837"
     inkscape:connector-curvature="0"
     sodipodi:nodetypes="cccccccccccccccc" />
  <path
     style="fill:none;stroke:black;stroke-width:0.17717;stroke-miterlimit:4;stroke-opacity:1;stroke-dasharray:none"
     d="M 5.8203,16.028 L 5.8281,19.593 L 5.8281,22.985 L 5.6996,23.116 L 4.8334,23.116 L 4.0958,23.116 L 4.1036,25.955"
     id="path3833"
     inkscape:connector-curvature="0"
     sodipodi:nodetypes="ccccccc" />
  <path
     style="fill:none;stroke:black;stroke-width:0.17717;stroke-miterlimit:4;stroke-opacity:1;stroke-dasharray:none"
     d="M 7.8491,16.023 L 7.8491,18.799 L 7.8491,21.269 L 10.102,21.269 L 12.484,21.269 L 12.613,21.397 L 12.613,23.599 L 12.613,25.922"
     id="path3839"
     inkscape:connector-curvature="0"
     sodipodi:nodetypes="cccccccc" />
  <path
     style="fill:none;stroke:black;stroke-width:0.17717;stroke-miterlimit:4;stroke-opacity:1;stroke-dasharray:none"
     d="M 23.468,16.866 L 23.468,16.846 L 23.468,16.836 L 16.309,16.836 L 9.147,16.836 L 9.147,18.33 L 9.147,19.825 L 13.097,19.825 L 17.044,19.825 L 17.044,18.474 L 17.044,16.822"
     id="path3878" />
  <path
     style="fill:none;stroke:black;stroke-width:0.17717;stroke-miterlimit:4;stroke-opacity:1;stroke-dasharray:none"
     d="M 19.686,16.807 L 19.686,19.34 L 19.686,21.686 L 19.557,21.817 L 17.608,21.817 L 15.659,21.817 L 15.529,21.686 L 15.529,21 L 15.529,20.445 L 12.159,20.445 L 8.6577,20.445 L 8.527,20.315 L 8.527,18.257 L 8.527,16.034"
     id="path3826"
     inkscape:connector-curvature="0"
     sodipodi:nodetypes="cccccccccccccc" />
  <path
     style="fill:none;stroke:black;stroke-width:0.17717;stroke-miterlimit:4;stroke-opacity:1;stroke-dasharray:none"
     d="M 13.984,16.817 L 13.984,17.969 L 13.984,18.943 L 13.856,19.074 L 11.907,19.074 L 9.9582,19.074 L 9.8262,18.943 L 9.8262,17.969 L 9.8262,16.817"
     id="path3845"
     inkscape:connector-curvature="0"
     sodipodi:nodetypes="ccccccccc" />
  <path
     style="fill:none;stroke:black;stroke-width:0.17717;stroke-miterlimit:4;stroke-opacity:1;stroke-dasharray:none"
     d="M 11.845,1.8951 C 11.845,1.8951 4.0067,1.8869 0.77454,1.881 L 0.77454,7.8638 L 0.77454,13.473 L 2.4865,13.473 L 4.3271,13.473 L 4.4557,13.602 L 4.4557,14.757 L 4.4557,15.912 L 4.3271,16.042 L 2.5226,16.042 L 0.84672,16.042 L 0.84672,19.051 L 0.84672,22.063 L 0.83675,25.961 L 15.529,25.961 L 15.529,24.032 L 15.529,20.397"
     id="path3880"
     inkscape:connector-curvature="0"
     sodipodi:nodetypes="cccccccccccccccccc" />
</svg>
